<svg 
    viewBox="0 0 32 32" 
    fill="none" 
    xmlns="http://www.w3.org/2000/svg">
    <rect 
        x="0.5" 
        width="32" 
        height="32" 
        rx="16" 
        fill="#FFD75E"/>
    <mask 
        id="path-2-inside-1_696_1957" 
        fill="white">
        <path 
            fill-rule="evenodd" 
            clip-rule="evenodd" 
            d="M13.5 20C16.8137 20 19.5 17.3137 19.5 14C19.5 10.6863 16.8137 8 13.5 8C10.1863 8 7.5 10.6863 7.5 14C7.5 17.3137 10.1863 20 13.5 20ZM12.5 12.6667C12.5 13.0349 12.2015 13.3333 11.8333 13.3333C11.4651 13.3333 11.1666 13.0349 11.1666 12.6667C11.1666 12.2985 11.4651 12 11.8333 12C12.2015 12 12.5 12.2985 12.5 12.6667ZM14.5 12.6667C14.5 13.0349 14.7985 13.3333 15.1666 13.3333C15.5348 13.3333 15.8333 13.0349 15.8333 12.6667C15.8333 12.2985 15.5348 12 15.1666 12C14.7985 12 14.5 12.2985 14.5 12.6667ZM11.1619 15.2773C11.131 15.0964 10.9597 14.9744 10.7785 15.0046C10.5969 15.0349 10.4742 15.2066 10.5045 15.3882L10.8333 15.3334C10.5045 15.3882 10.5045 15.3884 10.5046 15.3886L10.5046 15.389L10.5048 15.39L10.5053 15.3926L10.5066 15.3999L10.5111 15.423C10.515 15.4419 10.5208 15.468 10.5288 15.5002C10.5449 15.5644 10.5702 15.6535 10.6083 15.7591C10.6843 15.9696 10.813 16.2508 11.025 16.5334C11.4577 17.1103 12.22 17.6666 13.5 17.6666C14.78 17.6666 15.5422 17.1103 15.975 16.5334C16.1869 16.2508 16.3156 15.9696 16.3916 15.7591C16.4298 15.6535 16.4551 15.5644 16.4711 15.5002C16.4792 15.468 16.4849 15.4419 16.4888 15.423L16.4934 15.3999L16.4947 15.3926L16.4951 15.39L16.4953 15.389L16.4954 15.3886C16.4954 15.3884 16.4954 15.3882 16.1666 15.3334L16.4954 15.3882C16.5257 15.2066 16.403 15.0349 16.2214 15.0046C16.0403 14.9744 15.869 15.0964 15.8381 15.2772L15.838 15.2775L15.838 15.2779L15.8379 15.2782L15.8379 15.2783L15.8358 15.2887C15.8337 15.2991 15.83 15.316 15.8244 15.3385C15.8131 15.3836 15.7941 15.4508 15.7646 15.5327C15.7052 15.6972 15.6047 15.9159 15.4416 16.1333C15.1244 16.5564 14.5533 17 13.5 17C12.4466 17 11.8756 16.5564 11.5583 16.1333C11.3952 15.9159 11.2948 15.6972 11.2354 15.5327C11.2058 15.4508 11.1868 15.3836 11.1756 15.3385C11.1699 15.316 11.1662 15.2991 11.1641 15.2887L11.1621 15.2783L11.1619 15.2775L11.1619 15.2773ZM10.8333 15.3334C11.1621 15.2786 11.1621 15.2784 11.162 15.2782L11.1621 15.2786L10.8333 15.3334ZM20.6135 14C20.6135 17.4256 18.1528 20.2765 14.9026 20.8816C15.9221 22.7401 17.8973 24 20.1666 24C23.4804 24 26.1666 21.3137 26.1666 18C26.1666 14.739 23.5651 12.0856 20.3242 12.002C20.5124 12.6351 20.6135 13.3058 20.6135 14ZM21.3946 15.983C21.22 15.9248 21.1256 15.736 21.1838 15.5613C21.242 15.3867 21.4308 15.2923 21.6055 15.3505L23.6055 16.0172C23.7801 16.0754 23.8745 16.2642 23.8163 16.4388C23.7581 16.6135 23.5693 16.7079 23.3946 16.6496L21.3946 15.983ZM22.1455 19.883C22.2102 20.0554 22.1228 20.2476 21.9504 20.3122L19.2838 21.3122C19.1114 21.3768 18.9193 21.2895 18.8546 21.1171C18.79 20.9447 18.8773 20.7526 19.0497 20.688L21.7164 19.688C21.8887 19.6233 22.0809 19.7107 22.1455 19.883ZM21.8334 18.0001C21.4652 18.0001 21.1667 17.7016 21.1667 17.3334C21.1667 16.9652 21.4652 16.6667 21.8334 16.6667C22.2016 16.6667 22.5001 16.9652 22.5001 17.3334C22.5001 17.7016 22.2016 18.0001 21.8334 18.0001Z"/>
    </mask>
    <path 
        fill-rule="evenodd" 
        clip-rule="evenodd" 
        d="M13.5 20C16.8137 20 19.5 17.3137 19.5 14C19.5 10.6863 16.8137 8 13.5 8C10.1863 8 7.5 10.6863 7.5 14C7.5 17.3137 10.1863 20 13.5 20ZM12.5 12.6667C12.5 13.0349 12.2015 13.3333 11.8333 13.3333C11.4651 13.3333 11.1666 13.0349 11.1666 12.6667C11.1666 12.2985 11.4651 12 11.8333 12C12.2015 12 12.5 12.2985 12.5 12.6667ZM14.5 12.6667C14.5 13.0349 14.7985 13.3333 15.1666 13.3333C15.5348 13.3333 15.8333 13.0349 15.8333 12.6667C15.8333 12.2985 15.5348 12 15.1666 12C14.7985 12 14.5 12.2985 14.5 12.6667ZM11.1619 15.2773C11.131 15.0964 10.9597 14.9744 10.7785 15.0046C10.5969 15.0349 10.4742 15.2066 10.5045 15.3882L10.8333 15.3334C10.5045 15.3882 10.5045 15.3884 10.5046 15.3886L10.5046 15.389L10.5048 15.39L10.5053 15.3926L10.5066 15.3999L10.5111 15.423C10.515 15.4419 10.5208 15.468 10.5288 15.5002C10.5449 15.5644 10.5702 15.6535 10.6083 15.7591C10.6843 15.9696 10.813 16.2508 11.025 16.5334C11.4577 17.1103 12.22 17.6666 13.5 17.6666C14.78 17.6666 15.5422 17.1103 15.975 16.5334C16.1869 16.2508 16.3156 15.9696 16.3916 15.7591C16.4298 15.6535 16.4551 15.5644 16.4711 15.5002C16.4792 15.468 16.4849 15.4419 16.4888 15.423L16.4934 15.3999L16.4947 15.3926L16.4951 15.39L16.4953 15.389L16.4954 15.3886C16.4954 15.3884 16.4954 15.3882 16.1666 15.3334L16.4954 15.3882C16.5257 15.2066 16.403 15.0349 16.2214 15.0046C16.0403 14.9744 15.869 15.0964 15.8381 15.2772L15.838 15.2775L15.838 15.2779L15.8379 15.2782L15.8379 15.2783L15.8358 15.2887C15.8337 15.2991 15.83 15.316 15.8244 15.3385C15.8131 15.3836 15.7941 15.4508 15.7646 15.5327C15.7052 15.6972 15.6047 15.9159 15.4416 16.1333C15.1244 16.5564 14.5533 17 13.5 17C12.4466 17 11.8756 16.5564 11.5583 16.1333C11.3952 15.9159 11.2948 15.6972 11.2354 15.5327C11.2058 15.4508 11.1868 15.3836 11.1756 15.3385C11.1699 15.316 11.1662 15.2991 11.1641 15.2887L11.1621 15.2783L11.1619 15.2775L11.1619 15.2773ZM10.8333 15.3334C11.1621 15.2786 11.1621 15.2784 11.162 15.2782L11.1621 15.2786L10.8333 15.3334ZM20.6135 14C20.6135 17.4256 18.1528 20.2765 14.9026 20.8816C15.9221 22.7401 17.8973 24 20.1666 24C23.4804 24 26.1666 21.3137 26.1666 18C26.1666 14.739 23.5651 12.0856 20.3242 12.002C20.5124 12.6351 20.6135 13.3058 20.6135 14ZM21.3946 15.983C21.22 15.9248 21.1256 15.736 21.1838 15.5613C21.242 15.3867 21.4308 15.2923 21.6055 15.3505L23.6055 16.0172C23.7801 16.0754 23.8745 16.2642 23.8163 16.4388C23.7581 16.6135 23.5693 16.7079 23.3946 16.6496L21.3946 15.983ZM22.1455 19.883C22.2102 20.0554 22.1228 20.2476 21.9504 20.3122L19.2838 21.3122C19.1114 21.3768 18.9193 21.2895 18.8546 21.1171C18.79 20.9447 18.8773 20.7526 19.0497 20.688L21.7164 19.688C21.8887 19.6233 22.0809 19.7107 22.1455 19.883ZM21.8334 18.0001C21.4652 18.0001 21.1667 17.7016 21.1667 17.3334C21.1667 16.9652 21.4652 16.6667 21.8334 16.6667C22.2016 16.6667 22.5001 16.9652 22.5001 17.3334C22.5001 17.7016 22.2016 18.0001 21.8334 18.0001Z" 
        fill="white"/>
    <path 
        d="M10.7785 15.0046L11.0251 16.4842H11.0251L10.7785 15.0046ZM11.1619 15.2773L12.641 15.028L12.6405 15.0249L11.1619 15.2773ZM10.5045 15.3882L9.02492 15.6348L9.27152 17.1144L10.7511 16.8678L10.5045 15.3882ZM10.5046 15.3886L9.02508 15.6358L9.02538 15.6375L10.5046 15.3886ZM10.5046 15.389L9.02545 15.638L9.02589 15.6406L10.5046 15.389ZM10.5048 15.39L9.02606 15.6416L9.02696 15.6468L10.5048 15.39ZM10.5053 15.3926L9.02737 15.6494L9.02924 15.6597L10.5053 15.3926ZM10.5066 15.3999L9.03057 15.667L9.03253 15.6779L9.03466 15.6887L10.5066 15.3999ZM10.5111 15.423L9.03912 15.7118L9.04183 15.725L10.5111 15.423ZM10.5288 15.5002L9.07359 15.864L10.5288 15.5002ZM10.6083 15.7591L12.0192 15.2496L10.6083 15.7591ZM11.025 16.5334L12.225 15.6333L12.225 15.6333L11.025 16.5334ZM15.975 16.5334L14.775 15.6333L14.775 15.6333L15.975 16.5334ZM16.3916 15.7591L17.8024 16.2686V16.2686L16.3916 15.7591ZM16.4711 15.5002L17.9264 15.864L17.9264 15.864L16.4711 15.5002ZM16.4888 15.423L17.9582 15.725L17.9608 15.7118L16.4888 15.423ZM16.4934 15.3999L17.9653 15.6887L17.9674 15.6779L17.9694 15.6671L16.4934 15.3999ZM16.4947 15.3926L17.9707 15.6598L17.9726 15.649L16.4947 15.3926ZM16.4951 15.39L17.9731 15.6464L17.9739 15.6416L16.4951 15.39ZM16.4953 15.389L17.9741 15.6406L17.9744 15.6388L16.4953 15.389ZM16.4954 15.3886L17.9744 15.6383L17.9746 15.6375L16.4954 15.3886ZM16.4954 15.3882L16.2488 16.8678L17.7284 17.1144L17.975 15.6348L16.4954 15.3882ZM16.2214 15.0046L16.4681 13.525L16.468 13.525L16.2214 15.0046ZM15.8381 15.2772L14.3595 15.0246L14.3586 15.0297L15.8381 15.2772ZM15.838 15.2775L17.3171 15.527L17.3175 15.525L15.838 15.2775ZM15.838 15.2779L17.3168 15.5292L17.317 15.5275L15.838 15.2779ZM15.8379 15.2782L17.2594 15.7572L17.297 15.6456L17.3167 15.5295L15.8379 15.2782ZM15.8379 15.2783L14.4164 14.7994L14.3851 14.8922L14.3662 14.9883L15.8379 15.2783ZM15.8358 15.2887L17.3051 15.5908L17.3075 15.5788L15.8358 15.2887ZM15.8244 15.3385L14.3692 14.9746L14.3692 14.9747L15.8244 15.3385ZM15.7646 15.5327L17.1754 16.0421L17.1754 16.0421L15.7646 15.5327ZM15.4416 16.1333L14.2417 15.2333L14.2417 15.2333L15.4416 16.1333ZM11.5583 16.1333L12.7583 15.2333H12.7583L11.5583 16.1333ZM11.2354 15.5327L12.6462 15.0232L12.6462 15.0232L11.2354 15.5327ZM11.1756 15.3385L9.72036 15.7023L9.72036 15.7023L11.1756 15.3385ZM11.1641 15.2887L9.69239 15.5788L9.69484 15.5907L11.1641 15.2887ZM11.1621 15.2783L9.68758 15.5538L9.68895 15.5611L9.69038 15.5684L11.1621 15.2783ZM11.1619 15.2775L9.68278 15.5268L9.68499 15.5399L9.68742 15.5529L11.1619 15.2775ZM11.162 15.2782L12.6415 15.031L9.68234 15.5242L11.162 15.2782ZM11.1621 15.2786L11.4087 16.7582L12.889 16.5115L12.6416 15.0313L11.1621 15.2786ZM14.9026 20.8816L14.6281 19.4069L12.5908 19.7861L13.5875 21.603L14.9026 20.8816ZM20.3242 12.002L20.3629 10.5025L18.2977 10.4493L18.8864 12.4295L20.3242 12.002ZM21.3946 15.983L21.869 14.5599L21.869 14.5599L21.3946 15.983ZM21.6055 15.3505L21.1311 16.7735L21.1311 16.7735L21.6055 15.3505ZM23.6055 16.0172L23.1311 17.4402L23.6055 16.0172ZM23.8163 16.4388L22.3933 15.9645L22.3933 15.9645L23.8163 16.4388ZM23.3946 16.6496L22.9203 18.0727L22.9203 18.0727L23.3946 16.6496ZM21.9504 20.3122L21.4238 18.9077L21.9504 20.3122ZM19.2838 21.3122L18.7571 19.9077L18.7571 19.9077L19.2838 21.3122ZM18.8546 21.1171L20.2591 20.5904L20.2591 20.5904L18.8546 21.1171ZM19.0497 20.688L19.5764 22.0925L19.0497 20.688ZM21.7164 19.688L22.243 21.0925L22.243 21.0925L21.7164 19.688ZM18 14C18 16.4853 15.9853 18.5 13.5 18.5V21.5C17.6421 21.5 21 18.1421 21 14H18ZM13.5 9.5C15.9853 9.5 18 11.5147 18 14H21C21 9.85786 17.6421 6.5 13.5 6.5V9.5ZM9 14C9 11.5147 11.0147 9.5 13.5 9.5V6.5C9.35787 6.5 6 9.85787 6 14H9ZM13.5 18.5C11.0147 18.5 9 16.4853 9 14H6C6 18.1421 9.35786 21.5 13.5 21.5V18.5ZM11.8333 14.8333C13.0299 14.8333 14 13.8633 14 12.6667H11C11 12.2064 11.3731 11.8333 11.8333 11.8333V14.8333ZM9.66665 12.6667C9.66665 13.8633 10.6367 14.8333 11.8333 14.8333V11.8333C12.2936 11.8333 12.6666 12.2064 12.6666 12.6667H9.66665ZM11.8333 10.5C10.6367 10.5 9.66665 11.4701 9.66665 12.6667H12.6666C12.6666 13.1269 12.2936 13.5 11.8333 13.5V10.5ZM14 12.6667C14 11.4701 13.0299 10.5 11.8333 10.5V13.5C11.3731 13.5 11 13.1269 11 12.6667H14ZM15.1666 11.8333C15.6269 11.8333 16 12.2064 16 12.6667H13C13 13.8633 13.97 14.8333 15.1666 14.8333V11.8333ZM14.3333 12.6667C14.3333 12.2064 14.7064 11.8333 15.1666 11.8333V14.8333C16.3633 14.8333 17.3333 13.8633 17.3333 12.6667H14.3333ZM15.1666 13.5C14.7064 13.5 14.3333 13.1269 14.3333 12.6667H17.3333C17.3333 11.4701 16.3633 10.5 15.1666 10.5V13.5ZM16 12.6667C16 13.1269 15.6269 13.5 15.1666 13.5V10.5C13.97 10.5 13 11.4701 13 12.6667H16ZM11.0251 16.4842C10.391 16.5899 9.79135 16.1628 9.68327 15.5297L12.6405 15.0249C12.4707 14.03 11.5283 13.3589 10.5319 13.525L11.0251 16.4842ZM11.9841 15.1416C12.09 15.7771 11.6607 16.3782 11.0251 16.4842L10.5319 13.525C9.53315 13.6915 8.85846 14.6361 9.02492 15.6348L11.9841 15.1416ZM10.5867 13.8538L10.2579 13.9086L10.7511 16.8678L11.0799 16.813L10.5867 13.8538ZM11.9841 15.1414C11.9779 15.1047 12.0417 15.3875 11.9686 15.7152C11.8826 16.1005 11.668 16.3643 11.4904 16.5191C11.3367 16.6531 11.1917 16.7235 11.1321 16.751C11.0612 16.7836 11.0025 16.8038 10.9723 16.8138C10.9122 16.8335 10.8641 16.8449 10.8506 16.8481C10.8307 16.8528 10.8149 16.8561 10.8073 16.8577C10.7919 16.8608 10.7801 16.863 10.7775 16.8635C10.7731 16.8643 10.7701 16.8648 10.7694 16.8649C10.7685 16.8651 10.7736 16.8642 10.7948 16.8606C10.8344 16.8539 10.9153 16.8404 11.0799 16.813L10.5867 13.8538C10.4225 13.8812 10.339 13.8951 10.2964 13.9023C10.2766 13.9056 10.2611 13.9083 10.2499 13.9102C10.2467 13.9108 10.2418 13.9117 10.236 13.9127C10.2319 13.9135 10.2191 13.9158 10.2031 13.9191C10.1952 13.9208 10.1792 13.9241 10.1591 13.9289C10.1454 13.9321 10.0972 13.9435 10.037 13.9633C10.0067 13.9732 9.94803 13.9934 9.87708 14.0261C9.8175 14.0536 9.67246 14.124 9.51878 14.258C9.34119 14.4128 9.12654 14.6766 9.04057 15.0619C8.96745 15.3896 9.03122 15.6725 9.02508 15.6358L11.9841 15.1414ZM11.9838 15.14L11.9838 15.1396L9.02538 15.6375L9.02545 15.638L11.9838 15.14ZM11.9836 15.1384L11.9834 15.1374L9.02589 15.6406L9.02607 15.6416L11.9836 15.1384ZM11.9831 15.1358L11.9827 15.1333L9.02696 15.6468L9.0274 15.6494L11.9831 15.1358ZM11.9826 15.1328L11.9813 15.1255L9.02924 15.6597L9.03057 15.667L11.9826 15.1328ZM11.983 15.1341L11.9785 15.1111L9.03466 15.6887L9.03918 15.7118L11.983 15.1341ZM11.984 15.1364C11.9814 15.1259 11.9803 15.1205 11.9804 15.1209L9.04183 15.725C9.04973 15.7634 9.06013 15.8101 9.07359 15.864L11.984 15.1364ZM12.0192 15.2496C12.0003 15.1975 11.9893 15.1576 11.984 15.1364L9.07359 15.864C9.10041 15.9712 9.14005 16.1095 9.19751 16.2686L12.0192 15.2496ZM12.225 15.6333C12.123 15.4973 12.0578 15.3567 12.0192 15.2496L9.19751 16.2686C9.31083 16.5824 9.50315 17.0043 9.82499 17.4334L12.225 15.6333ZM13.5 16.1666C13.0851 16.1666 12.815 16.0785 12.6388 15.9866C12.4587 15.8926 12.3256 15.7675 12.225 15.6333L9.82499 17.4334C10.5173 18.3563 11.7096 19.1666 13.5 19.1666V16.1666ZM14.775 15.6333C14.6743 15.7675 14.5413 15.8926 14.3611 15.9866C14.185 16.0785 13.9148 16.1666 13.5 16.1666V19.1666C15.2903 19.1666 16.4827 18.3563 17.175 17.4334L14.775 15.6333ZM14.9808 15.2496C14.9421 15.3567 14.877 15.4973 14.775 15.6333L17.175 17.4334C17.4968 17.0043 17.6891 16.5824 17.8024 16.2686L14.9808 15.2496ZM15.0159 15.1364C15.0106 15.1576 14.9996 15.1975 14.9808 15.2496L17.8024 16.2686C17.8599 16.1095 17.8995 15.9712 17.9264 15.864L15.0159 15.1364ZM15.0196 15.1209C15.0197 15.1204 15.0186 15.1259 15.0159 15.1364L17.9264 15.864C17.9398 15.8101 17.9502 15.7634 17.9581 15.725L15.0196 15.1209ZM15.0214 15.1111L15.0169 15.1341L17.9608 15.7118L17.9653 15.6887L15.0214 15.1111ZM15.0187 15.1254L15.0173 15.1327L17.9694 15.6671L17.9707 15.6598L15.0187 15.1254ZM15.0172 15.1337L15.0168 15.1362L17.9726 15.649L17.9731 15.6464L15.0172 15.1337ZM15.0165 15.1374L15.0164 15.1384L17.9739 15.6416L17.9741 15.6406L15.0165 15.1374ZM15.0163 15.1388L15.0162 15.1393L17.9744 15.6388L17.9744 15.6383L15.0163 15.1388ZM15.92 16.813C16.0846 16.8404 16.1655 16.8539 16.2051 16.8606C16.2264 16.8642 16.2315 16.8651 16.2305 16.8649C16.2299 16.8648 16.2268 16.8643 16.2225 16.8635C16.2199 16.863 16.208 16.8608 16.1926 16.8577C16.1851 16.8561 16.1693 16.8528 16.1493 16.8481C16.1359 16.8449 16.0877 16.8335 16.0276 16.8137C15.9973 16.8038 15.9387 16.7836 15.8677 16.7509C15.8081 16.7235 15.663 16.653 15.5092 16.5188C15.3314 16.3637 15.1167 16.0995 15.0311 15.7138C14.9924 15.5399 14.9919 15.3913 14.9986 15.29C15.0019 15.2408 15.0069 15.2013 15.0103 15.1772C15.0117 15.1678 15.0139 15.1537 15.0146 15.149C15.0154 15.1444 15.0162 15.1397 15.0162 15.1397L17.9746 15.6375C17.9746 15.6375 17.9754 15.6328 17.9761 15.6281C17.9769 15.6234 17.979 15.6094 17.9804 15.6C17.9838 15.5759 17.9889 15.5363 17.9921 15.4872C17.9988 15.3858 17.9983 15.2373 17.9597 15.0633C17.874 14.6776 17.6593 14.4134 17.4815 14.2583C17.3278 14.1241 17.1826 14.0536 17.123 14.0262C17.052 13.9935 16.9933 13.9732 16.963 13.9633C16.9028 13.9435 16.8545 13.9321 16.8409 13.9289C16.8208 13.9241 16.8047 13.9208 16.7968 13.9191C16.7808 13.9158 16.768 13.9135 16.764 13.9127C16.7582 13.9117 16.7532 13.9108 16.75 13.9102C16.7388 13.9083 16.7234 13.9056 16.7035 13.9023C16.6609 13.8951 16.5775 13.8812 16.4132 13.8538L15.92 16.813ZM16.742 13.9086L16.4132 13.8538L15.92 16.813L16.2488 16.8678L16.742 13.9086ZM15.9748 16.4842C15.3393 16.3782 14.9099 15.7772 15.0159 15.1416L17.975 15.6348C18.1415 14.636 17.4668 13.6915 16.4681 13.525L15.9748 16.4842ZM17.3166 15.5298C17.2085 16.1629 16.6088 16.5898 15.9748 16.4842L16.468 13.525C15.4718 13.3589 14.5295 14.0298 14.3595 15.0246L17.3166 15.5298ZM17.3175 15.525L17.3175 15.5247L14.3586 15.0297L14.3586 15.03L17.3175 15.525ZM17.317 15.5275L17.3171 15.527L14.3589 15.0279L14.3589 15.0284L17.317 15.5275ZM17.3167 15.5295L17.3168 15.5292L14.3591 15.0267L14.3591 15.027L17.3167 15.5295ZM17.2593 15.7573L17.2594 15.7572L14.4164 14.7993L14.4164 14.7994L17.2593 15.7573ZM17.3075 15.5788L17.3096 15.5684L14.3662 14.9883L14.3641 14.9987L17.3075 15.5788ZM17.2796 15.7023C17.2906 15.6581 17.299 15.6205 17.3051 15.5908L14.3665 14.9867C14.3684 14.9776 14.3694 14.9738 14.3692 14.9746L17.2796 15.7023ZM17.1754 16.0421C17.2243 15.9068 17.2576 15.7904 17.2796 15.7023L14.3692 14.9747C14.3686 14.9768 14.364 14.9948 14.3538 15.0232L17.1754 16.0421ZM16.6416 17.0334C16.9146 16.6694 17.0787 16.31 17.1754 16.0421L14.3538 15.0232C14.3317 15.0843 14.2948 15.1624 14.2417 15.2333L16.6416 17.0334ZM13.5 18.5C15.0628 18.5 16.0643 17.8031 16.6416 17.0334L14.2417 15.2333C14.1935 15.2975 14.1359 15.3522 14.0533 15.3952C13.9732 15.437 13.8086 15.5 13.5 15.5V18.5ZM10.3583 17.0334C10.9357 17.8031 11.9371 18.5 13.5 18.5V15.5C13.1913 15.5 13.0267 15.437 12.9467 15.3952C12.8641 15.3522 12.8064 15.2975 12.7583 15.2333L10.3583 17.0334ZM9.82454 16.0421C9.92128 16.31 10.0853 16.6694 10.3583 17.0334L12.7583 15.2333C12.7051 15.1624 12.6683 15.0843 12.6462 15.0232L9.82454 16.0421ZM9.72036 15.7023C9.74239 15.7904 9.77566 15.9068 9.82454 16.0421L12.6462 15.0232C12.6359 14.9948 12.6313 14.9768 12.6308 14.9746L9.72036 15.7023ZM9.69484 15.5907C9.70096 15.6205 9.7093 15.6581 9.72036 15.7023L12.6308 14.9747C12.6306 14.9738 12.6315 14.9776 12.6334 14.9867L9.69484 15.5907ZM9.69038 15.5684L9.69243 15.5788L12.6358 14.9987L12.6338 14.9883L9.69038 15.5684ZM9.68742 15.5529L9.68758 15.5538L12.6366 15.0029L12.6364 15.002L9.68742 15.5529ZM9.68274 15.5266L9.68278 15.5268L12.6411 15.0282L12.641 15.028L9.68274 15.5266ZM9.68234 15.5242C9.68853 15.5614 9.61339 15.2348 9.72085 14.8624C9.83979 14.4502 10.0975 14.2026 10.2575 14.0817C10.4039 13.971 10.5367 13.9138 10.5866 13.893C10.6488 13.8672 10.6997 13.851 10.7256 13.8432C10.7773 13.8274 10.8185 13.8181 10.83 13.8155C10.847 13.8116 10.8605 13.8089 10.867 13.8076C10.8801 13.805 10.8901 13.8032 10.8923 13.8028C10.8959 13.8021 10.8984 13.8017 10.8988 13.8016C10.899 13.8016 10.8932 13.8026 10.8721 13.8061C10.8323 13.8128 10.7512 13.8264 10.5867 13.8538L11.0799 16.813C11.2442 16.7856 11.3275 16.7717 11.3699 16.7645C11.3899 16.7612 11.4046 16.7587 11.415 16.7568C11.4153 16.7568 11.4343 16.7535 11.4559 16.7492C11.4627 16.7479 11.4764 16.7451 11.4936 16.7412C11.5052 16.7385 11.5465 16.7292 11.5984 16.7134C11.6243 16.7055 11.6752 16.6894 11.7374 16.6635C11.7874 16.6428 11.9202 16.5855 12.0666 16.4748C12.2265 16.3539 12.4843 16.1063 12.6032 15.6941C12.7107 15.3217 12.6356 14.9951 12.6417 15.0323L9.68234 15.5242ZM12.6416 15.0313L12.6415 15.031L9.68257 15.5255L9.68262 15.5259L12.6416 15.0313ZM11.0799 16.813L11.4087 16.7582L10.9155 13.799L10.5867 13.8538L11.0799 16.813ZM15.1771 22.3562C19.1247 21.6213 22.1135 18.1613 22.1135 14H19.1135C19.1135 16.6899 17.1809 18.9316 14.6281 19.4069L15.1771 22.3562ZM20.1666 22.5C18.4666 22.5 16.9845 21.5579 16.2177 20.1601L13.5875 21.603C14.8598 23.9223 17.3279 25.5 20.1666 25.5V22.5ZM24.6666 18C24.6666 20.4853 22.6519 22.5 20.1666 22.5V25.5C24.3088 25.5 27.6666 22.1421 27.6666 18H24.6666ZM20.2855 13.5015C22.7154 13.5642 24.6666 15.5544 24.6666 18H27.6666C27.6666 13.9235 24.4147 10.607 20.3629 10.5025L20.2855 13.5015ZM22.1135 14C22.1135 13.1595 21.991 12.345 21.762 11.5746L18.8864 12.4295C19.0338 12.9253 19.1135 13.452 19.1135 14H22.1135ZM19.7608 15.087C19.4406 16.0476 19.9597 17.0858 20.9203 17.406L21.869 14.5599C22.4803 14.7637 22.8106 15.4244 22.6068 16.0357L19.7608 15.087ZM22.0798 13.9275C21.1192 13.6073 20.081 14.1264 19.7608 15.087L22.6068 16.0357C22.4031 16.6469 21.7424 16.9773 21.1311 16.7735L22.0798 13.9275ZM24.0798 14.5942L22.0798 13.9275L21.1311 16.7735L23.1311 17.4402L24.0798 14.5942ZM25.2393 16.9132C25.5595 15.9526 25.0404 14.9143 24.0798 14.5942L23.1311 17.4402C22.5199 17.2365 22.1895 16.5758 22.3933 15.9645L25.2393 16.9132ZM22.9203 18.0727C23.8809 18.3928 24.9191 17.8737 25.2393 16.9132L22.3933 15.9645C22.597 15.3532 23.2577 15.0229 23.869 15.2266L22.9203 18.0727ZM20.9203 17.406L22.9203 18.0727L23.869 15.2266L21.869 14.5599L20.9203 17.406ZM22.4771 21.7167C23.4252 21.3612 23.9055 20.3044 23.55 19.3564L20.741 20.4097C20.5148 19.8064 20.8204 19.1339 21.4238 18.9077L22.4771 21.7167ZM19.8105 22.7167L22.4771 21.7167L21.4238 18.9077L18.7571 19.9077L19.8105 22.7167ZM17.4501 21.6438C17.8056 22.5919 18.8624 23.0722 19.8105 22.7167L18.7571 19.9077C19.3604 19.6815 20.0329 19.9871 20.2591 20.5904L17.4501 21.6438ZM18.523 19.2835C17.575 19.639 17.0946 20.6957 17.4501 21.6438L20.2591 20.5904C20.4854 21.1937 20.1797 21.8662 19.5764 22.0925L18.523 19.2835ZM21.1897 18.2835L18.523 19.2835L19.5764 22.0925L22.243 21.0925L21.1897 18.2835ZM23.55 19.3564C23.1945 18.4083 22.1377 17.928 21.1897 18.2835L22.243 21.0925C21.6397 21.3187 20.9673 21.013 20.741 20.4097L23.55 19.3564ZM19.6667 17.3334C19.6667 18.53 20.6368 19.5001 21.8334 19.5001V16.5001C22.2936 16.5001 22.6667 16.8732 22.6667 17.3334H19.6667ZM21.8334 15.1667C20.6368 15.1667 19.6667 16.1368 19.6667 17.3334H22.6667C22.6667 17.7936 22.2936 18.1667 21.8334 18.1667V15.1667ZM24.0001 17.3334C24.0001 16.1368 23.03 15.1667 21.8334 15.1667V18.1667C21.3732 18.1667 21.0001 17.7936 21.0001 17.3334H24.0001ZM21.8334 19.5001C23.03 19.5001 24.0001 18.53 24.0001 17.3334H21.0001C21.0001 16.8732 21.3732 16.5001 21.8334 16.5001V19.5001Z" fill="white" mask="url(#path-2-inside-1_696_1957)"/>
</svg>
