<svg 
    viewBox="0 0 36 36" 
    fill="current" 
    xmlns="http://www.w3.org/2000/svg">
    <rect 
        x="1.25" 
        y="1.25" 
        width="33.5" 
        height="33.5" 
        rx="16.75" 
        fill="#F2F1F3"/>
    <mask 
        id="path-2-inside-1_696_1876" 
        fill="white">
        <path 
            fill-rule="evenodd" 
            clip-rule="evenodd" 
            d="M15 22C18.3137 22 21 19.3137 21 16C21 12.6863 18.3137 10 15 10C11.6863 10 9 12.6863 9 16C9 19.3137 11.6863 22 15 22ZM14 14.6667C14 15.0349 13.7015 15.3333 13.3333 15.3333C12.9651 15.3333 12.6666 15.0349 12.6666 14.6667C12.6666 14.2985 12.9651 14 13.3333 14C13.7015 14 14 14.2985 14 14.6667ZM16 14.6667C16 15.0349 16.2985 15.3333 16.6666 15.3333C17.0348 15.3333 17.3333 15.0349 17.3333 14.6667C17.3333 14.2985 17.0348 14 16.6666 14C16.2985 14 16 14.2985 16 14.6667ZM12.6619 17.2773C12.631 17.0964 12.4597 16.9744 12.2785 17.0046C12.0969 17.0349 11.9742 17.2066 12.0045 17.3882L12.3333 17.3334C12.0045 17.3882 12.0045 17.3884 12.0046 17.3886L12.0046 17.389L12.0048 17.39L12.0053 17.3926L12.0066 17.3999L12.0111 17.423C12.015 17.4419 12.0208 17.468 12.0288 17.5002C12.0449 17.5644 12.0702 17.6535 12.1083 17.7591C12.1843 17.9696 12.313 18.2508 12.525 18.5334C12.9577 19.1103 13.72 19.6666 15 19.6666C16.28 19.6666 17.0422 19.1103 17.475 18.5334C17.6869 18.2508 17.8156 17.9696 17.8916 17.7591C17.9298 17.6535 17.9551 17.5644 17.9711 17.5002C17.9792 17.468 17.9849 17.4419 17.9888 17.423L17.9934 17.3999L17.9947 17.3926L17.9951 17.39L17.9953 17.389L17.9954 17.3886C17.9954 17.3884 17.9954 17.3882 17.6666 17.3334L17.9954 17.3882C18.0257 17.2066 17.903 17.0349 17.7214 17.0046C17.5403 16.9744 17.369 17.0964 17.3381 17.2772L17.338 17.2775L17.338 17.2779L17.3379 17.2782L17.3379 17.2783L17.3358 17.2887C17.3337 17.2991 17.33 17.316 17.3244 17.3385C17.3131 17.3836 17.2941 17.4508 17.2646 17.5327C17.2052 17.6972 17.1047 17.9159 16.9416 18.1333C16.6244 18.5564 16.0533 19 15 19C13.9466 19 13.3756 18.5564 13.0583 18.1333C12.8952 17.9159 12.7948 17.6972 12.7354 17.5327C12.7058 17.4508 12.6868 17.3836 12.6756 17.3385C12.6699 17.316 12.6662 17.2991 12.6641 17.2887L12.6621 17.2783L12.6619 17.2775L12.6619 17.2773ZM12.3333 17.3334C12.6621 17.2786 12.6621 17.2784 12.662 17.2782L12.6621 17.2786L12.3333 17.3334ZM22.1135 16C22.1135 19.4256 19.6528 22.2765 16.4026 22.8816C17.4221 24.7401 19.3973 26 21.6666 26C24.9804 26 27.6666 23.3137 27.6666 20C27.6666 16.739 25.0651 14.0856 21.8242 14.002C22.0124 14.6351 22.1135 15.3058 22.1135 16ZM22.8946 17.983C22.72 17.9248 22.6256 17.736 22.6838 17.5613C22.742 17.3867 22.9308 17.2923 23.1055 17.3505L25.1055 18.0172C25.2801 18.0754 25.3745 18.2642 25.3163 18.4388C25.2581 18.6135 25.0693 18.7079 24.8946 18.6496L22.8946 17.983ZM23.6455 21.883C23.7102 22.0554 23.6228 22.2476 23.4504 22.3122L20.7838 23.3122C20.6114 23.3768 20.4193 23.2895 20.3546 23.1171C20.29 22.9447 20.3773 22.7526 20.5497 22.688L23.2164 21.688C23.3887 21.6233 23.5809 21.7107 23.6455 21.883ZM23.3334 20.0001C22.9652 20.0001 22.6667 19.7016 22.6667 19.3334C22.6667 18.9652 22.9652 18.6667 23.3334 18.6667C23.7016 18.6667 24.0001 18.9652 24.0001 19.3334C24.0001 19.7016 23.7016 20.0001 23.3334 20.0001Z"/>
    </mask>
    <path 
        fill-rule="evenodd" 
        clip-rule="evenodd" 
        d="M15 22C18.3137 22 21 19.3137 21 16C21 12.6863 18.3137 10 15 10C11.6863 10 9 12.6863 9 16C9 19.3137 11.6863 22 15 22ZM14 14.6667C14 15.0349 13.7015 15.3333 13.3333 15.3333C12.9651 15.3333 12.6666 15.0349 12.6666 14.6667C12.6666 14.2985 12.9651 14 13.3333 14C13.7015 14 14 14.2985 14 14.6667ZM16 14.6667C16 15.0349 16.2985 15.3333 16.6666 15.3333C17.0348 15.3333 17.3333 15.0349 17.3333 14.6667C17.3333 14.2985 17.0348 14 16.6666 14C16.2985 14 16 14.2985 16 14.6667ZM12.6619 17.2773C12.631 17.0964 12.4597 16.9744 12.2785 17.0046C12.0969 17.0349 11.9742 17.2066 12.0045 17.3882L12.3333 17.3334C12.0045 17.3882 12.0045 17.3884 12.0046 17.3886L12.0046 17.389L12.0048 17.39L12.0053 17.3926L12.0066 17.3999L12.0111 17.423C12.015 17.4419 12.0208 17.468 12.0288 17.5002C12.0449 17.5644 12.0702 17.6535 12.1083 17.7591C12.1843 17.9696 12.313 18.2508 12.525 18.5334C12.9577 19.1103 13.72 19.6666 15 19.6666C16.28 19.6666 17.0422 19.1103 17.475 18.5334C17.6869 18.2508 17.8156 17.9696 17.8916 17.7591C17.9298 17.6535 17.9551 17.5644 17.9711 17.5002C17.9792 17.468 17.9849 17.4419 17.9888 17.423L17.9934 17.3999L17.9947 17.3926L17.9951 17.39L17.9953 17.389L17.9954 17.3886C17.9954 17.3884 17.9954 17.3882 17.6666 17.3334L17.9954 17.3882C18.0257 17.2066 17.903 17.0349 17.7214 17.0046C17.5403 16.9744 17.369 17.0964 17.3381 17.2772L17.338 17.2775L17.338 17.2779L17.3379 17.2782L17.3379 17.2783L17.3358 17.2887C17.3337 17.2991 17.33 17.316 17.3244 17.3385C17.3131 17.3836 17.2941 17.4508 17.2646 17.5327C17.2052 17.6972 17.1047 17.9159 16.9416 18.1333C16.6244 18.5564 16.0533 19 15 19C13.9466 19 13.3756 18.5564 13.0583 18.1333C12.8952 17.9159 12.7948 17.6972 12.7354 17.5327C12.7058 17.4508 12.6868 17.3836 12.6756 17.3385C12.6699 17.316 12.6662 17.2991 12.6641 17.2887L12.6621 17.2783L12.6619 17.2775L12.6619 17.2773ZM12.3333 17.3334C12.6621 17.2786 12.6621 17.2784 12.662 17.2782L12.6621 17.2786L12.3333 17.3334ZM22.1135 16C22.1135 19.4256 19.6528 22.2765 16.4026 22.8816C17.4221 24.7401 19.3973 26 21.6666 26C24.9804 26 27.6666 23.3137 27.6666 20C27.6666 16.739 25.0651 14.0856 21.8242 14.002C22.0124 14.6351 22.1135 15.3058 22.1135 16ZM22.8946 17.983C22.72 17.9248 22.6256 17.736 22.6838 17.5613C22.742 17.3867 22.9308 17.2923 23.1055 17.3505L25.1055 18.0172C25.2801 18.0754 25.3745 18.2642 25.3163 18.4388C25.2581 18.6135 25.0693 18.7079 24.8946 18.6496L22.8946 17.983ZM23.6455 21.883C23.7102 22.0554 23.6228 22.2476 23.4504 22.3122L20.7838 23.3122C20.6114 23.3768 20.4193 23.2895 20.3546 23.1171C20.29 22.9447 20.3773 22.7526 20.5497 22.688L23.2164 21.688C23.3887 21.6233 23.5809 21.7107 23.6455 21.883ZM23.3334 20.0001C22.9652 20.0001 22.6667 19.7016 22.6667 19.3334C22.6667 18.9652 22.9652 18.6667 23.3334 18.6667C23.7016 18.6667 24.0001 18.9652 24.0001 19.3334C24.0001 19.7016 23.7016 20.0001 23.3334 20.0001Z" 
        fill="#676671"/>
    <path 
        d="M12.2785 17.0046L12.5251 18.4842H12.5251L12.2785 17.0046ZM12.6619 17.2773L14.141 17.028L14.1405 17.0249L12.6619 17.2773ZM12.0045 17.3882L10.5249 17.6348L10.7715 19.1144L12.2511 18.8678L12.0045 17.3882ZM12.0046 17.3886L10.5251 17.6358L10.5254 17.6375L12.0046 17.3886ZM12.0046 17.389L10.5254 17.638L10.5259 17.6406L12.0046 17.389ZM12.0048 17.39L10.5261 17.6416L10.527 17.6468L12.0048 17.39ZM12.0053 17.3926L10.5274 17.6494L10.5292 17.6597L12.0053 17.3926ZM12.0066 17.3999L10.5306 17.667L10.5325 17.6779L10.5347 17.6887L12.0066 17.3999ZM12.0111 17.423L10.5391 17.7118L10.5418 17.725L12.0111 17.423ZM12.0288 17.5002L10.5736 17.864L12.0288 17.5002ZM12.1083 17.7591L13.5192 17.2496L12.1083 17.7591ZM12.525 18.5334L13.725 17.6333L13.725 17.6333L12.525 18.5334ZM17.475 18.5334L16.275 17.6333L16.275 17.6333L17.475 18.5334ZM17.8916 17.7591L19.3024 18.2686V18.2686L17.8916 17.7591ZM17.9711 17.5002L19.4264 17.864L19.4264 17.864L17.9711 17.5002ZM17.9888 17.423L19.4582 17.725L19.4608 17.7118L17.9888 17.423ZM17.9934 17.3999L19.4653 17.6887L19.4674 17.6779L19.4694 17.6671L17.9934 17.3999ZM17.9947 17.3926L19.4707 17.6598L19.4726 17.649L17.9947 17.3926ZM17.9951 17.39L19.4731 17.6464L19.4739 17.6416L17.9951 17.39ZM17.9953 17.389L19.4741 17.6406L19.4744 17.6388L17.9953 17.389ZM17.9954 17.3886L19.4744 17.6383L19.4746 17.6375L17.9954 17.3886ZM17.9954 17.3882L17.7488 18.8678L19.2284 19.1144L19.475 17.6348L17.9954 17.3882ZM17.7214 17.0046L17.9681 15.525L17.968 15.525L17.7214 17.0046ZM17.3381 17.2772L15.8595 17.0246L15.8586 17.0297L17.3381 17.2772ZM17.338 17.2775L18.8171 17.527L18.8175 17.525L17.338 17.2775ZM17.338 17.2779L18.8168 17.5292L18.817 17.5275L17.338 17.2779ZM17.3379 17.2782L18.7594 17.7572L18.797 17.6456L18.8167 17.5295L17.3379 17.2782ZM17.3379 17.2783L15.9164 16.7994L15.8851 16.8922L15.8662 16.9883L17.3379 17.2783ZM17.3358 17.2887L18.8051 17.5908L18.8075 17.5788L17.3358 17.2887ZM17.3244 17.3385L15.8692 16.9746L15.8692 16.9747L17.3244 17.3385ZM17.2646 17.5327L18.6754 18.0421L18.6754 18.0421L17.2646 17.5327ZM16.9416 18.1333L15.7417 17.2333L15.7417 17.2333L16.9416 18.1333ZM13.0583 18.1333L14.2583 17.2333H14.2583L13.0583 18.1333ZM12.7354 17.5327L14.1462 17.0232L14.1462 17.0232L12.7354 17.5327ZM12.6756 17.3385L11.2204 17.7023L11.2204 17.7023L12.6756 17.3385ZM12.6641 17.2887L11.1924 17.5788L11.1948 17.5907L12.6641 17.2887ZM12.6621 17.2783L11.1876 17.5538L11.1889 17.5611L11.1904 17.5684L12.6621 17.2783ZM12.6619 17.2775L11.1828 17.5268L11.185 17.5399L11.1874 17.5529L12.6619 17.2775ZM12.662 17.2782L14.1415 17.031L11.1823 17.5242L12.662 17.2782ZM12.6621 17.2786L12.9087 18.7582L14.389 18.5115L14.1416 17.0313L12.6621 17.2786ZM16.4026 22.8816L16.1281 21.4069L14.0908 21.7861L15.0875 23.603L16.4026 22.8816ZM21.8242 14.002L21.8629 12.5025L19.7977 12.4493L20.3864 14.4295L21.8242 14.002ZM22.8946 17.983L23.369 16.5599L23.369 16.5599L22.8946 17.983ZM23.1055 17.3505L22.6311 18.7735L22.6311 18.7735L23.1055 17.3505ZM25.1055 18.0172L24.6311 19.4402L25.1055 18.0172ZM25.3163 18.4388L23.8933 17.9645L23.8933 17.9645L25.3163 18.4388ZM24.8946 18.6496L24.4203 20.0727L24.4203 20.0727L24.8946 18.6496ZM23.4504 22.3122L22.9238 20.9077L23.4504 22.3122ZM20.7838 23.3122L20.2571 21.9077L20.2571 21.9077L20.7838 23.3122ZM20.3546 23.1171L21.7591 22.5904L21.7591 22.5904L20.3546 23.1171ZM20.5497 22.688L21.0764 24.0925L20.5497 22.688ZM23.2164 21.688L23.743 23.0925L23.743 23.0925L23.2164 21.688ZM19.5 16C19.5 18.4853 17.4853 20.5 15 20.5V23.5C19.1421 23.5 22.5 20.1421 22.5 16H19.5ZM15 11.5C17.4853 11.5 19.5 13.5147 19.5 16H22.5C22.5 11.8579 19.1421 8.5 15 8.5V11.5ZM10.5 16C10.5 13.5147 12.5147 11.5 15 11.5V8.5C10.8579 8.5 7.5 11.8579 7.5 16H10.5ZM15 20.5C12.5147 20.5 10.5 18.4853 10.5 16H7.5C7.5 20.1421 10.8579 23.5 15 23.5V20.5ZM13.3333 16.8333C14.5299 16.8333 15.5 15.8633 15.5 14.6667H12.5C12.5 14.2064 12.8731 13.8333 13.3333 13.8333V16.8333ZM11.1666 14.6667C11.1666 15.8633 12.1367 16.8333 13.3333 16.8333V13.8333C13.7936 13.8333 14.1666 14.2064 14.1666 14.6667H11.1666ZM13.3333 12.5C12.1367 12.5 11.1666 13.4701 11.1666 14.6667H14.1666C14.1666 15.1269 13.7936 15.5 13.3333 15.5V12.5ZM15.5 14.6667C15.5 13.4701 14.5299 12.5 13.3333 12.5V15.5C12.8731 15.5 12.5 15.1269 12.5 14.6667H15.5ZM16.6666 13.8333C17.1269 13.8333 17.5 14.2064 17.5 14.6667H14.5C14.5 15.8633 15.47 16.8333 16.6666 16.8333V13.8333ZM15.8333 14.6667C15.8333 14.2064 16.2064 13.8333 16.6666 13.8333V16.8333C17.8633 16.8333 18.8333 15.8633 18.8333 14.6667H15.8333ZM16.6666 15.5C16.2064 15.5 15.8333 15.1269 15.8333 14.6667H18.8333C18.8333 13.4701 17.8633 12.5 16.6666 12.5V15.5ZM17.5 14.6667C17.5 15.1269 17.1269 15.5 16.6666 15.5V12.5C15.47 12.5 14.5 13.4701 14.5 14.6667H17.5ZM12.5251 18.4842C11.891 18.5899 11.2913 18.1628 11.1833 17.5297L14.1405 17.0249C13.9707 16.03 13.0283 15.3589 12.0319 15.525L12.5251 18.4842ZM13.4841 17.1416C13.59 17.7771 13.1607 18.3782 12.5251 18.4842L12.0319 15.525C11.0331 15.6915 10.3585 16.6361 10.5249 17.6348L13.4841 17.1416ZM12.0867 15.8538L11.7579 15.9086L12.2511 18.8678L12.5799 18.813L12.0867 15.8538ZM13.4841 17.1414C13.4779 17.1047 13.5417 17.3875 13.4686 17.7152C13.3826 18.1005 13.168 18.3643 12.9904 18.5191C12.8367 18.6531 12.6917 18.7235 12.6321 18.751C12.5612 18.7836 12.5025 18.8038 12.4723 18.8138C12.4122 18.8335 12.3641 18.8449 12.3506 18.8481C12.3307 18.8528 12.3149 18.8561 12.3073 18.8577C12.2919 18.8608 12.2801 18.863 12.2775 18.8635C12.2731 18.8643 12.2701 18.8648 12.2694 18.8649C12.2685 18.8651 12.2736 18.8642 12.2948 18.8606C12.3344 18.8539 12.4153 18.8404 12.5799 18.813L12.0867 15.8538C11.9225 15.8812 11.839 15.8951 11.7964 15.9023C11.7766 15.9056 11.7611 15.9083 11.7499 15.9102C11.7467 15.9108 11.7418 15.9117 11.736 15.9127C11.7319 15.9135 11.7191 15.9158 11.7031 15.9191C11.6952 15.9208 11.6792 15.9241 11.6591 15.9289C11.6454 15.9321 11.5972 15.9435 11.537 15.9633C11.5067 15.9732 11.448 15.9934 11.3771 16.0261C11.3175 16.0536 11.1725 16.124 11.0188 16.258C10.8412 16.4128 10.6265 16.6766 10.5406 17.0619C10.4675 17.3896 10.5312 17.6725 10.5251 17.6358L13.4841 17.1414ZM13.4838 17.14L13.4838 17.1396L10.5254 17.6375L10.5255 17.638L13.4838 17.14ZM13.4836 17.1384L13.4834 17.1374L10.5259 17.6406L10.5261 17.6416L13.4836 17.1384ZM13.4831 17.1358L13.4827 17.1333L10.527 17.6468L10.5274 17.6494L13.4831 17.1358ZM13.4826 17.1328L13.4813 17.1255L10.5292 17.6597L10.5306 17.667L13.4826 17.1328ZM13.483 17.1341L13.4785 17.1111L10.5347 17.6887L10.5392 17.7118L13.483 17.1341ZM13.484 17.1364C13.4814 17.1259 13.4803 17.1205 13.4804 17.1209L10.5418 17.725C10.5497 17.7634 10.5601 17.8101 10.5736 17.864L13.484 17.1364ZM13.5192 17.2496C13.5003 17.1975 13.4893 17.1576 13.484 17.1364L10.5736 17.864C10.6004 17.9712 10.64 18.1095 10.6975 18.2686L13.5192 17.2496ZM13.725 17.6333C13.623 17.4973 13.5578 17.3567 13.5192 17.2496L10.6975 18.2686C10.8108 18.5824 11.0031 19.0043 11.325 19.4334L13.725 17.6333ZM15 18.1666C14.5851 18.1666 14.315 18.0785 14.1388 17.9866C13.9587 17.8926 13.8256 17.7675 13.725 17.6333L11.325 19.4334C12.0173 20.3563 13.2096 21.1666 15 21.1666V18.1666ZM16.275 17.6333C16.1743 17.7675 16.0413 17.8926 15.8611 17.9866C15.685 18.0785 15.4148 18.1666 15 18.1666V21.1666C16.7903 21.1666 17.9827 20.3563 18.675 19.4334L16.275 17.6333ZM16.4808 17.2496C16.4421 17.3567 16.377 17.4973 16.275 17.6333L18.675 19.4334C18.9968 19.0043 19.1891 18.5824 19.3024 18.2686L16.4808 17.2496ZM16.5159 17.1364C16.5106 17.1576 16.4996 17.1975 16.4808 17.2496L19.3024 18.2686C19.3599 18.1095 19.3995 17.9712 19.4264 17.864L16.5159 17.1364ZM16.5196 17.1209C16.5197 17.1204 16.5186 17.1259 16.5159 17.1364L19.4264 17.864C19.4398 17.8101 19.4502 17.7634 19.4581 17.725L16.5196 17.1209ZM16.5214 17.1111L16.5169 17.1341L19.4608 17.7118L19.4653 17.6887L16.5214 17.1111ZM16.5187 17.1254L16.5173 17.1327L19.4694 17.6671L19.4707 17.6598L16.5187 17.1254ZM16.5172 17.1337L16.5168 17.1362L19.4726 17.649L19.4731 17.6464L16.5172 17.1337ZM16.5165 17.1374L16.5164 17.1384L19.4739 17.6416L19.4741 17.6406L16.5165 17.1374ZM16.5163 17.1388L16.5162 17.1393L19.4744 17.6388L19.4744 17.6383L16.5163 17.1388ZM17.42 18.813C17.5846 18.8404 17.6655 18.8539 17.7051 18.8606C17.7264 18.8642 17.7315 18.8651 17.7305 18.8649C17.7299 18.8648 17.7268 18.8643 17.7225 18.8635C17.7199 18.863 17.708 18.8608 17.6926 18.8577C17.6851 18.8561 17.6693 18.8528 17.6493 18.8481C17.6359 18.8449 17.5877 18.8335 17.5276 18.8137C17.4973 18.8038 17.4387 18.7836 17.3677 18.7509C17.3081 18.7235 17.163 18.653 17.0092 18.5188C16.8314 18.3637 16.6167 18.0995 16.5311 17.7138C16.4924 17.5399 16.4919 17.3913 16.4986 17.29C16.5019 17.2408 16.5069 17.2013 16.5103 17.1772C16.5117 17.1678 16.5139 17.1537 16.5146 17.149C16.5154 17.1444 16.5162 17.1397 16.5162 17.1397L19.4746 17.6375C19.4746 17.6375 19.4754 17.6328 19.4761 17.6281C19.4769 17.6234 19.479 17.6094 19.4804 17.6C19.4838 17.5759 19.4889 17.5363 19.4921 17.4872C19.4988 17.3858 19.4983 17.2373 19.4597 17.0633C19.374 16.6776 19.1593 16.4134 18.9815 16.2583C18.8278 16.1241 18.6826 16.0536 18.623 16.0262C18.552 15.9935 18.4933 15.9732 18.463 15.9633C18.4028 15.9435 18.3545 15.9321 18.3409 15.9289C18.3208 15.9241 18.3047 15.9208 18.2968 15.9191C18.2808 15.9158 18.268 15.9135 18.264 15.9127C18.2582 15.9117 18.2532 15.9108 18.25 15.9102C18.2388 15.9083 18.2234 15.9056 18.2035 15.9023C18.1609 15.8951 18.0775 15.8812 17.9132 15.8538L17.42 18.813ZM18.242 15.9086L17.9132 15.8538L17.42 18.813L17.7488 18.8678L18.242 15.9086ZM17.4748 18.4842C16.8393 18.3782 16.4099 17.7772 16.5159 17.1416L19.475 17.6348C19.6415 16.636 18.9668 15.6915 17.9681 15.525L17.4748 18.4842ZM18.8166 17.5298C18.7085 18.1629 18.1088 18.5898 17.4748 18.4842L17.968 15.525C16.9718 15.3589 16.0295 16.0298 15.8595 17.0246L18.8166 17.5298ZM18.8175 17.525L18.8175 17.5247L15.8586 17.0297L15.8586 17.03L18.8175 17.525ZM18.817 17.5275L18.8171 17.527L15.8589 17.0279L15.8589 17.0284L18.817 17.5275ZM18.8167 17.5295L18.8168 17.5292L15.8591 17.0267L15.8591 17.027L18.8167 17.5295ZM18.7593 17.7573L18.7594 17.7572L15.9164 16.7993L15.9164 16.7994L18.7593 17.7573ZM18.8075 17.5788L18.8096 17.5684L15.8662 16.9883L15.8641 16.9987L18.8075 17.5788ZM18.7796 17.7023C18.7906 17.6581 18.799 17.6205 18.8051 17.5908L15.8665 16.9867C15.8684 16.9776 15.8694 16.9738 15.8692 16.9746L18.7796 17.7023ZM18.6754 18.0421C18.7243 17.9068 18.7576 17.7904 18.7796 17.7023L15.8692 16.9747C15.8686 16.9768 15.864 16.9948 15.8538 17.0232L18.6754 18.0421ZM18.1416 19.0334C18.4146 18.6694 18.5787 18.31 18.6754 18.0421L15.8538 17.0232C15.8317 17.0843 15.7948 17.1624 15.7417 17.2333L18.1416 19.0334ZM15 20.5C16.5628 20.5 17.5643 19.8031 18.1416 19.0334L15.7417 17.2333C15.6935 17.2975 15.6359 17.3522 15.5533 17.3952C15.4732 17.437 15.3086 17.5 15 17.5V20.5ZM11.8583 19.0334C12.4357 19.8031 13.4371 20.5 15 20.5V17.5C14.6913 17.5 14.5267 17.437 14.4467 17.3952C14.3641 17.3522 14.3064 17.2975 14.2583 17.2333L11.8583 19.0334ZM11.3245 18.0421C11.4213 18.31 11.5853 18.6694 11.8583 19.0334L14.2583 17.2333C14.2051 17.1624 14.1683 17.0843 14.1462 17.0232L11.3245 18.0421ZM11.2204 17.7023C11.2424 17.7904 11.2757 17.9068 11.3245 18.0421L14.1462 17.0232C14.1359 16.9948 14.1313 16.9768 14.1308 16.9746L11.2204 17.7023ZM11.1948 17.5907C11.201 17.6205 11.2093 17.6581 11.2204 17.7023L14.1308 16.9747C14.1306 16.9738 14.1315 16.9776 14.1334 16.9867L11.1948 17.5907ZM11.1904 17.5684L11.1924 17.5788L14.1358 16.9987L14.1338 16.9883L11.1904 17.5684ZM11.1874 17.5529L11.1876 17.5538L14.1366 17.0029L14.1364 17.002L11.1874 17.5529ZM11.1827 17.5266L11.1828 17.5268L14.1411 17.0282L14.141 17.028L11.1827 17.5266ZM11.1823 17.5242C11.1885 17.5614 11.1134 17.2348 11.2208 16.8624C11.3398 16.4502 11.5975 16.2026 11.7575 16.0817C11.9039 15.971 12.0367 15.9138 12.0866 15.893C12.1488 15.8672 12.1997 15.851 12.2256 15.8432C12.2773 15.8274 12.3185 15.8181 12.33 15.8155C12.347 15.8116 12.3605 15.8089 12.367 15.8076C12.3801 15.805 12.3901 15.8032 12.3923 15.8028C12.3959 15.8021 12.3984 15.8017 12.3988 15.8016C12.399 15.8016 12.3932 15.8026 12.3721 15.8061C12.3323 15.8128 12.2512 15.8264 12.0867 15.8538L12.5799 18.813C12.7442 18.7856 12.8275 18.7717 12.8699 18.7645C12.8899 18.7612 12.9046 18.7587 12.915 18.7568C12.9153 18.7568 12.9343 18.7535 12.9559 18.7492C12.9627 18.7479 12.9764 18.7451 12.9936 18.7412C13.0052 18.7385 13.0465 18.7292 13.0984 18.7134C13.1243 18.7055 13.1752 18.6894 13.2374 18.6635C13.2874 18.6428 13.4202 18.5855 13.5666 18.4748C13.7265 18.3539 13.9843 18.1063 14.1032 17.6941C14.2107 17.3217 14.1356 16.9951 14.1417 17.0323L11.1823 17.5242ZM14.1416 17.0313L14.1415 17.031L11.1826 17.5255L11.1826 17.5259L14.1416 17.0313ZM12.5799 18.813L12.9087 18.7582L12.4155 15.799L12.0867 15.8538L12.5799 18.813ZM16.6771 24.3562C20.6247 23.6213 23.6135 20.1613 23.6135 16H20.6135C20.6135 18.6899 18.6809 20.9316 16.1281 21.4069L16.6771 24.3562ZM21.6666 24.5C19.9666 24.5 18.4845 23.5579 17.7177 22.1601L15.0875 23.603C16.3598 25.9223 18.8279 27.5 21.6666 27.5V24.5ZM26.1666 20C26.1666 22.4853 24.1519 24.5 21.6666 24.5V27.5C25.8088 27.5 29.1666 24.1421 29.1666 20H26.1666ZM21.7855 15.5015C24.2154 15.5642 26.1666 17.5544 26.1666 20H29.1666C29.1666 15.9235 25.9147 12.607 21.8629 12.5025L21.7855 15.5015ZM23.6135 16C23.6135 15.1595 23.491 14.345 23.262 13.5746L20.3864 14.4295C20.5338 14.9253 20.6135 15.452 20.6135 16H23.6135ZM21.2608 17.087C20.9406 18.0476 21.4597 19.0858 22.4203 19.406L23.369 16.5599C23.9803 16.7637 24.3106 17.4244 24.1068 18.0357L21.2608 17.087ZM23.5798 15.9275C22.6192 15.6073 21.581 16.1264 21.2608 17.087L24.1068 18.0357C23.9031 18.6469 23.2424 18.9773 22.6311 18.7735L23.5798 15.9275ZM25.5798 16.5942L23.5798 15.9275L22.6311 18.7735L24.6311 19.4402L25.5798 16.5942ZM26.7393 18.9132C27.0595 17.9526 26.5404 16.9143 25.5798 16.5942L24.6311 19.4402C24.0199 19.2365 23.6895 18.5758 23.8933 17.9645L26.7393 18.9132ZM24.4203 20.0727C25.3809 20.3928 26.4191 19.8737 26.7393 18.9132L23.8933 17.9645C24.097 17.3532 24.7577 17.0229 25.369 17.2266L24.4203 20.0727ZM22.4203 19.406L24.4203 20.0727L25.369 17.2266L23.369 16.5599L22.4203 19.406ZM23.9771 23.7167C24.9252 23.3612 25.4055 22.3044 25.05 21.3564L22.241 22.4097C22.0148 21.8064 22.3204 21.1339 22.9238 20.9077L23.9771 23.7167ZM21.3105 24.7167L23.9771 23.7167L22.9238 20.9077L20.2571 21.9077L21.3105 24.7167ZM18.9501 23.6438C19.3056 24.5919 20.3624 25.0722 21.3105 24.7167L20.2571 21.9077C20.8604 21.6815 21.5329 21.9871 21.7591 22.5904L18.9501 23.6438ZM20.023 21.2835C19.075 21.639 18.5946 22.6957 18.9501 23.6438L21.7591 22.5904C21.9854 23.1937 21.6797 23.8662 21.0764 24.0925L20.023 21.2835ZM22.6897 20.2835L20.023 21.2835L21.0764 24.0925L23.743 23.0925L22.6897 20.2835ZM25.05 21.3564C24.6945 20.4083 23.6377 19.928 22.6897 20.2835L23.743 23.0925C23.1397 23.3187 22.4673 23.013 22.241 22.4097L25.05 21.3564ZM21.1667 19.3334C21.1667 20.53 22.1368 21.5001 23.3334 21.5001V18.5001C23.7936 18.5001 24.1667 18.8732 24.1667 19.3334H21.1667ZM23.3334 17.1667C22.1368 17.1667 21.1667 18.1368 21.1667 19.3334H24.1667C24.1667 19.7936 23.7936 20.1667 23.3334 20.1667V17.1667ZM25.5001 19.3334C25.5001 18.1368 24.53 17.1667 23.3334 17.1667V20.1667C22.8732 20.1667 22.5001 19.7936 22.5001 19.3334H25.5001ZM23.3334 21.5001C24.53 21.5001 25.5001 20.53 25.5001 19.3334H22.5001C22.5001 18.8732 22.8732 18.5001 23.3334 18.5001V21.5001Z" fill="#676671" mask="url(#path-2-inside-1_696_1876)"/>
    <circle 
        cx="18" 
        cy="18"  
        r="16.75" 
        fill="none"
        stroke="#FFD75E" 
        stroke-width="1.5" 
        stroke-dasharray="3 4"/>
</svg>
