<svg viewBox="0 0 24 24" fill="none" xmlns="http://www.w3.org/2000/svg">
<path fill-rule="evenodd" clip-rule="evenodd" d="M15.2154 15.853C14.0258 16.8944 12.468 17.5255 10.7628 17.5255C7.02779 17.5255 4 14.4977 4 10.7628C4 7.02779 7.02779 4 10.7628 4C14.4977 4 17.5255 7.02779 17.5255 10.7628C17.5255 12.4325 16.9203 13.961 15.9174 15.1407L19.9027 19.1261C20.098 19.3213 20.098 19.6379 19.9027 19.8332C19.7074 20.0284 19.3909 20.0284 19.1956 19.8332L15.2154 15.853ZM16.5255 10.7628C16.5255 13.9454 13.9454 16.5255 10.7628 16.5255C7.58007 16.5255 5 13.9454 5 10.7628C5 7.58007 7.58007 5 10.7628 5C13.9454 5 16.5255 7.58007 16.5255 10.7628Z" fill="#676671"/>
</svg>
