<svg 
    viewBox="0 0 24 24" 
    fill="none" 
    xmlns="http://www.w3.org/2000/svg">
    <path 
        fill-rule="evenodd" 
        clip-rule="evenodd" 
        d="M16.7223 4.00005L7.28416 4C7.21049 4 7.13983 4.03292 7.08774 4.09153C7.03565 4.15013 7.00638 4.22962 7.00638 4.3125V6.00009L4.33335 6.00009C3.97986 6.00051 3.64097 6.14113 3.39101 6.39108C3.14106 6.64104 3.00044 6.97993 3.00002 7.33342L3 12.6667C3.00042 13.0202 3.14104 13.3591 3.39099 13.6091C3.64095 13.859 3.97984 13.9997 4.33333 14.0001H7V19.7144C7 19.7901 7.02927 19.8628 7.08136 19.9164C7.13345 19.97 7.20411 20.0001 7.27778 20.0001H16.7222C16.7959 20.0001 16.8665 19.97 16.9186 19.9164C16.9707 19.8628 17 19.7901 17 19.7144V14.0001L19.6667 14.0001C20.0202 13.9996 20.3591 13.859 20.609 13.6091C20.859 13.3591 20.9996 13.0202 21 12.6667L21 7.33341C20.9996 6.97992 20.859 6.64103 20.609 6.39107C20.3591 6.14111 20.0202 6.0005 19.6667 6.00008L17 6.00008V4.31255C17 4.22967 16.9708 4.15018 16.9187 4.09158C16.8666 4.03297 16.7959 4.00005 16.7223 4.00005ZM6.5 11.0001H7.27778H16.7222H17.5C17.7761 11.0001 18 11.2239 18 11.5001C18 11.7762 17.7761 12.0001 17.5 12.0001H17V12.9937H19.2C19.4122 12.9937 19.6157 12.9094 19.7657 12.7594C19.9157 12.6093 20 12.4058 20 12.1937V7.80008C20 7.58791 19.9157 7.38442 19.7657 7.2344C19.6157 7.08437 19.4122 7.00008 19.2 7.00008H4.80001C4.58784 7.00008 4.38435 7.08437 4.23433 7.2344C4.0843 7.38442 4.00001 7.58791 4.00001 7.80008V12.1937C4.00001 12.4058 4.0843 12.6093 4.23433 12.7594C4.38435 12.9094 4.58784 12.9937 4.80001 12.9937H7V12.0001H6.5C6.22386 12.0001 6 11.7762 6 11.5001C6 11.2239 6.22386 11.0001 6.5 11.0001ZM8 12.0001H16V19.0001H8V12.0001ZM8.00003 5.00007L16 5.00008V6.00005L10.0517 6.00005L8.00003 6.00005V5.00007ZM5.53333 9.06675C5.82789 9.06675 6.06667 8.82797 6.06667 8.53342C6.06667 8.23887 5.82789 8.00008 5.53333 8.00008C5.23878 8.00008 5 8.23887 5 8.53342C5 8.82797 5.23878 9.06675 5.53333 9.06675ZM9.5 17.0001C9.22386 17.0001 9 17.2239 9 17.5001C9 17.7762 9.22386 18.0001 9.5 18.0001H14.5C14.7761 18.0001 15 17.7762 15 17.5001C15 17.2239 14.7761 17.0001 14.5 17.0001H9.5ZM9 15.5001C9 15.2239 9.22386 15.0001 9.5 15.0001H14.5C14.7761 15.0001 15 15.2239 15 15.5001C15 15.7762 14.7761 16.0001 14.5 16.0001H9.5C9.22386 16.0001 9 15.7762 9 15.5001ZM9.5 13.0001C9.22386 13.0001 9 13.2239 9 13.5001C9 13.7762 9.22386 14.0001 9.5 14.0001H14.5C14.7761 14.0001 15 13.7762 15 13.5001C15 13.2239 14.7761 13.0001 14.5 13.0001H9.5Z" 
        fill="current"
    />
</svg>
